<svg xmlns="http://www.w3.org/2000/svg" viewBox="0 0 79.9 77.83"><defs><style>.cls-1{fill:#ffc727;}.cls-2{fill:none;stroke:#fff;stroke-width:2.42px;}.cls-3{fill:#151313;}</style></defs><title>資產 1</title><g id="圖層_2" data-name="圖層 2"><g id="圖層_1-2" data-name="圖層 1"><circle class="cls-1" cx="39.98" cy="38.92" r="36.5"/><circle class="cls-2" cx="39.98" cy="38.92" r="37.71"/><path class="cls-3" d="M29.18,24a4.5,4.5,0,0,1-.16.48c-.05.21-.11.44-.16.68l-.08.32v.24a1.75,1.75,0,0,0,0,.4v.28l-.56,1a4.26,4.26,0,0,0-.36,1,4.12,4.12,0,0,1-.52,1.2c-.24.35-.47.71-.68,1.08a2.92,2.92,0,0,0-.28.32,2.32,2.32,0,0,0-.24.28,4.61,4.61,0,0,0-.84.4,2.65,2.65,0,0,0-.72.52l-.16.08-.16.08a8.15,8.15,0,0,0-.88.36l-.88.4-1.08-.16a2.66,2.66,0,0,0-.56.12l-.52.2a.66.66,0,0,1-.44-.28,1.59,1.59,0,0,1-.24-.2.3.3,0,0,0-.32,0,.45.45,0,0,1-.4-.12.88.88,0,0,0-.36-.24,1,1,0,0,1-.24,0l-.28.08-.64-.16a1.91,1.91,0,0,0-.68.12c-.14-.06-.27-.13-.4-.2a.8.8,0,0,0-.48-.12,2.1,2.1,0,0,1-.56-.08,1.57,1.57,0,0,0-.52-.16L14.26,32l-.4-.08a.68.68,0,0,1-.24-.2l-.16-.24a.49.49,0,0,0-.24-.08.53.53,0,0,0-.28-.16,1.09,1.09,0,0,0-.36-.12,2.31,2.31,0,0,1-.48-.28,4.48,4.48,0,0,0-.4-.36l-.52-.6a2.5,2.5,0,0,0-.52-.6l-.2-.4a3.42,3.42,0,0,0-.36-.4,1.16,1.16,0,0,0-.44-.32H9.18s0,0-.08-.08,0-.1,0-.12l.08-.32c0-.14.05-.26.08-.36a.58.58,0,0,0-.12-.36c-.06-.12-.11-.24-.16-.36a6.17,6.17,0,0,0-.28-1.6c-.13-.54-.28-1.07-.44-1.6V22.18a1.1,1.1,0,0,0,.2-.28l.2-.28-.08-.4a1.75,1.75,0,0,1,0-.4,2.59,2.59,0,0,0,0-.48l-.08-.56a.5.5,0,0,1,0-.16,1.22,1.22,0,0,0,0-.32.67.67,0,0,0,0-.24.58.58,0,0,0,0-.32,1.74,1.74,0,0,1,0-.6c0-.22.05-.44.08-.68s.1-.35.16-.52a1.34,1.34,0,0,0,0-.56.48.48,0,0,1,.08-.32,1.12,1.12,0,0,0,.24-.52c0-.19.05-.36.08-.52s.28-.48.44-.72a3,3,0,0,1,.64-.68l.24-.32a2.32,2.32,0,0,1,.24-.28,5.7,5.7,0,0,0,1.12-1.56l.28-.2a2.8,2.8,0,0,0,.32-.2.22.22,0,0,1,.16-.16,1.3,1.3,0,0,1,1-1h.2l.32-.08.28-.2a1.6,1.6,0,0,1,.36-.24.64.64,0,0,1,.32-.24,2.14,2.14,0,0,1,.4-.2,1.29,1.29,0,0,0,.44-.16,1.42,1.42,0,0,1,.4-.24,1.66,1.66,0,0,1,.84,0,1.73,1.73,0,0,0,1.48-.12,1,1,0,0,1,.56-.16A.9.9,0,0,0,19.86,8l.84.28.8.16a4.06,4.06,0,0,1,.8.24l.76.24.8.32a3.46,3.46,0,0,1,.72.36l.28.12a.44.44,0,0,1,.28.08,3,3,0,0,1,.36.16.65.65,0,0,1,.28.12,1.55,1.55,0,0,1,.2.32c.09.11.18.22.28.32a2,2,0,0,0,.2.16.68.68,0,0,1,.24.12,1.22,1.22,0,0,1,.44.4.7.7,0,0,1,.2.52.39.39,0,0,0,.12.28.49.49,0,0,1,.2.32,5.92,5.92,0,0,0-.32.76,1.41,1.41,0,0,1-.64.8.36.36,0,0,0-.08.12.28.28,0,0,1,0,.12,1.08,1.08,0,0,1-.12.76,4.86,4.86,0,0,1-.48.64v.32c0,.08-.07.13-.2.16s-.09,0-.2.08a.38.38,0,0,0-.2.16.4.4,0,0,1-.24.24.39.39,0,0,1-.28,0,.68.68,0,0,0-.56-.24l0,0-.08-.08c0-.06-.05-.08-.08-.08a1.1,1.1,0,0,0-.4-.08,1.18,1.18,0,0,1-1-.64.64.64,0,0,0-.16-.2l-1-.4a3.22,3.22,0,0,0-1-.32c-.27,0-.52,0-.76,0a1.68,1.68,0,0,0-.8.12l-.52.52c-.19.08-.37.14-.56.2a2.11,2.11,0,0,0-.48.12,1.7,1.7,0,0,1-.44.24,1,1,0,0,0-.48.24,1.24,1.24,0,0,0-.32.4v.44a1.11,1.11,0,0,1-.44.12,1.75,1.75,0,0,0-.12.32v.28a3.19,3.19,0,0,1-.16,1c0,.18-.05.38-.08.6s-.07.43-.12.64c0,0,0,.08,0,.16a.29.29,0,0,1,0,.16c0,.13.07.21,0,.24s0,.38-.08.6a1.34,1.34,0,0,0,0,.56,5.05,5.05,0,0,1,.12.56c0,.18.05.38.08.6a.69.69,0,0,1,.08.32c0,.1.05.22.08.36a3.83,3.83,0,0,0,.36.44,1.28,1.28,0,0,0,0,.36,1.71,1.71,0,0,1,0,.36,1.41,1.41,0,0,0,.24.6,1.91,1.91,0,0,1,.32.56,2.75,2.75,0,0,0,.44.28.6.6,0,0,1,.36.32l.6.48a5.88,5.88,0,0,1,.6.52,1.58,1.58,0,0,1,.28.08,1,1,0,0,1,.32.12l.88-.16c.29-.06.6-.12.92-.2a.67.67,0,0,1,.24,0,1,1,0,0,1,.28,0h.24a.31.31,0,0,0,.2-.12.91.91,0,0,0,.24-.24,1.24,1.24,0,0,1,.28-.28.68.68,0,0,1,.24-.12,2,2,0,0,0,.2-.16,4.53,4.53,0,0,0,.4-.56l.32-.56a1.61,1.61,0,0,0-.08-.48,1.69,1.69,0,0,0-.12-.44.57.57,0,0,0-.52-.44.81.81,0,0,0-.44,0,3.51,3.51,0,0,1-1.12.12,4,4,0,0,0-1,0,1.17,1.17,0,0,0-.44-.2c-.08-.11-.09-.19,0-.24s.15-.36.2-.52a1.13,1.13,0,0,0,0-.52A6.28,6.28,0,0,1,20,21.3c.08-.4.16-.79.24-1.16a.78.78,0,0,1,.72-.4l.8-.16a3.94,3.94,0,0,0,.76-.32,2.89,2.89,0,0,1,.72,0,1.45,1.45,0,0,1,.68.16,7.82,7.82,0,0,1,1,.12,9,9,0,0,0,1,0l.16.08a.23.23,0,0,1,.16.12,2.05,2.05,0,0,1,.36-.28,2.14,2.14,0,0,1,.4.2l.36.2a.45.45,0,0,0,.2,0,.79.79,0,0,1,.28,0,2.85,2.85,0,0,1,.6.4,2,2,0,0,0,.6.32.78.78,0,0,1,.28.72,1.15,1.15,0,0,1-.28.6,2.59,2.59,0,0,1,0,.48,2.59,2.59,0,0,0,0,.48c0,.1,0,.24.08.4a1.52,1.52,0,0,1,0,.68ZM50.36,21.5a1.45,1.45,0,0,1,0,.88,2.64,2.64,0,0,0-.12.4.9.9,0,0,0,0,.4s0,.06,0,.12v.12a1.45,1.45,0,0,0-.16.68c0,.24.05.46.08.68l-.4.56v.52l-.2.2a2.91,2.91,0,0,0-.32.24,3.75,3.75,0,0,1-.24.6,6,6,0,0,0-.2.6v.4a1.77,1.77,0,0,1-.4.28,1,1,0,0,0-.4.36c-.11.08-.22.14-.32.2a3.42,3.42,0,0,0-.36.2.45.45,0,0,1-.2,0,.15.15,0,0,0-.16,0c-.4,0-.6.18-.6.56a9.78,9.78,0,0,0-.88.6l-.84.64a4.29,4.29,0,0,1-1.76.72,1.78,1.78,0,0,0-.68.2,6.75,6.75,0,0,1-.68.2l-.2,0a.23.23,0,0,0-.2,0,3.44,3.44,0,0,1-1-.08.58.58,0,0,0-.32,0,1.58,1.58,0,0,0-.28.08l-.56-.08-.6-.08a7.3,7.3,0,0,1-.68-.36A3.67,3.67,0,0,0,37,31a1.18,1.18,0,0,1-.44-.28,2.44,2.44,0,0,1-.32-.4.23.23,0,0,0-.12-.12A.48.48,0,0,0,36,30a1.34,1.34,0,0,0-.24-.12,1.59,1.59,0,0,1-.24-.2,8.33,8.33,0,0,1-1.16-1,3.39,3.39,0,0,1-.72-1.28,4.23,4.23,0,0,0-.48-.92,1.18,1.18,0,0,0-.2-.28l-.16-.32.12-.32-.16-.24a.48.48,0,0,1-.08-.28,1,1,0,0,0,0-.24,1.12,1.12,0,0,1,0-.32,1.53,1.53,0,0,0,0-.56,1.75,1.75,0,0,1,0-.56,1.34,1.34,0,0,0,0-.52.85.85,0,0,1,.08-.52c.05-.19.09-.36.12-.52a2.11,2.11,0,0,1,.12-.48c.05-.15.1-.3.16-.44s.1-.3.16-.44l.16-.48a2.37,2.37,0,0,1,.24-.52v-.2c0-.08,0-.14,0-.16a6.23,6.23,0,0,0,.24-.6,1.53,1.53,0,0,0,0-.56,2.44,2.44,0,0,1,.28-.32,1.42,1.42,0,0,0,.2-.28,2,2,0,0,1,.16-.36,2.81,2.81,0,0,1,.24-.36,1.5,1.5,0,0,1,.36-.56,2.44,2.44,0,0,1,.28-.32,1.39,1.39,0,0,1,.2-.24.65.65,0,0,0,.08-.4,1.22,1.22,0,0,1,0-.32.9.9,0,0,1,.12-.24.82.82,0,0,0,.2-.12.68.68,0,0,1,.24-.12c.21-.14.44-.27.68-.4a3.78,3.78,0,0,1,.72-.32,2.07,2.07,0,0,1,.72-.32l.8-.24H40a3.86,3.86,0,0,1,.6,0h.36a2.68,2.68,0,0,0,.88.16c.32,0,.62,0,.92,0h.4a2.32,2.32,0,0,1,.44,0,3.35,3.35,0,0,1,.32.28,1.27,1.27,0,0,1,.32.24.68.68,0,0,1,.24.12,1,1,0,0,0,.28.12,1.82,1.82,0,0,1,1,.36,10.53,10.53,0,0,1,.88.64v.24a.67.67,0,0,0,0,.24.45.45,0,0,0,.24.36,1.11,1.11,0,0,0,.28,0,.72.72,0,0,1,.32.08l.2.36a3.6,3.6,0,0,1,.28.4l.32.32a1.13,1.13,0,0,1,.24.36.56.56,0,0,1,.12.2l.12.2L49,18a.61.61,0,0,1,.16.32,2.49,2.49,0,0,0,.24.56,2.69,2.69,0,0,1,.24.6.68.68,0,0,0,.12.24A2.32,2.32,0,0,1,50,20c0,.24.09.49.12.76A3.36,3.36,0,0,0,50.36,21.5Zm-5.6,1.44a.72.72,0,0,0-.08-.48A.75.75,0,0,1,44.6,22c0-.06,0-.12-.12-.2a.79.79,0,0,1,0-.32.48.48,0,0,0,0-.2v-.2l-.52-.8a6.79,6.79,0,0,0-.52-.76c0-.06,0-.08-.08-.08a.49.49,0,0,1-.16-.16,3.6,3.6,0,0,1-1.48-.36,1.52,1.52,0,0,0-1.16,0,.17.17,0,0,0-.12,0l-.12.12h-.2a.66.66,0,0,0-.84.48l-.2.36a1.09,1.09,0,0,0-.12.36,1.74,1.74,0,0,1-.16.36,1.55,1.55,0,0,0-.2.32,2.2,2.2,0,0,0-.28.44,3.29,3.29,0,0,1-.28.44,3.24,3.24,0,0,1-.2.8,3.69,3.69,0,0,0-.16.76c.08.13.16.28.24.44a3,3,0,0,1,.2.4,2,2,0,0,1,.2,1,.32.32,0,0,0,0,.16l.08.16.68.16a4.87,4.87,0,0,1,.68.2,5.05,5.05,0,0,0,.56.12,1.11,1.11,0,0,0,.56-.08H41a1.77,1.77,0,0,0,.6,0c.21-.06.44-.11.68-.16l.56-.44a3.27,3.27,0,0,1,.64-.4,4.31,4.31,0,0,1,.68-1,2.68,2.68,0,0,0,.56-1ZM71.49,21.5a1.4,1.4,0,0,1,0,.88,2.64,2.64,0,0,0-.12.4.9.9,0,0,0,0,.4s0,.06,0,.12v.12a1.45,1.45,0,0,0-.16.68c0,.24,0,.46.08.68l-.4.56v.52l-.2.2a2.91,2.91,0,0,0-.32.24,3.75,3.75,0,0,1-.24.6c-.07.19-.14.39-.2.6v.4a1.77,1.77,0,0,1-.4.28,1.06,1.06,0,0,0-.4.36l-.32.2a3.42,3.42,0,0,0-.36.2.45.45,0,0,1-.2,0,.15.15,0,0,0-.16,0c-.4,0-.6.18-.6.56-.3.19-.59.39-.88.6l-.84.64A4.23,4.23,0,0,1,64,31.5a1.78,1.78,0,0,0-.68.2,5.31,5.31,0,0,1-.68.2l-.2,0a.23.23,0,0,0-.2,0,3.46,3.46,0,0,1-1-.08.58.58,0,0,0-.32,0,1.58,1.58,0,0,0-.28.08l-.56-.08-.6-.08c-.23-.11-.46-.23-.68-.36a3.67,3.67,0,0,0-.6-.36,1.18,1.18,0,0,1-.44-.28,2.44,2.44,0,0,1-.32-.4.23.23,0,0,0-.12-.12.48.48,0,0,0-.12-.16,1.08,1.08,0,0,0-.24-.12,1.59,1.59,0,0,1-.24-.2,9,9,0,0,1-1.16-1,3.39,3.39,0,0,1-.72-1.28,3.83,3.83,0,0,0-.48-.92,1,1,0,0,0-.2-.28L54,25.94a2.08,2.08,0,0,0,.12-.32l-.16-.24a.57.57,0,0,1-.08-.28.67.67,0,0,0,0-.24,1.12,1.12,0,0,1,0-.32,1.34,1.34,0,0,0,0-.56,1.75,1.75,0,0,1,0-.56,1.17,1.17,0,0,0,0-.52.85.85,0,0,1,.08-.52,4.87,4.87,0,0,0,.12-.52,4.21,4.21,0,0,1,.12-.48c0-.16.11-.31.16-.44s.11-.31.16-.44l.16-.48a2.45,2.45,0,0,1,.24-.52v-.2c0-.08,0-.14,0-.16a3.4,3.4,0,0,0,.24-.6,1.34,1.34,0,0,0,0-.56,3.52,3.52,0,0,1,.28-.32,1.1,1.1,0,0,0,.2-.28,3.17,3.17,0,0,1,.16-.36,2.81,2.81,0,0,1,.24-.36,1.5,1.5,0,0,1,.36-.56,3.52,3.52,0,0,1,.28-.32,2.07,2.07,0,0,1,.2-.24.58.58,0,0,0,.08-.4,1.87,1.87,0,0,1,0-.32.9.9,0,0,1,.12-.24.67.67,0,0,0,.2-.12.68.68,0,0,1,.24-.12c.21-.14.44-.27.68-.4a3.78,3.78,0,0,1,.72-.32,2.07,2.07,0,0,1,.72-.32l.8-.24h.64a3.86,3.86,0,0,1,.6,0h.36a2.73,2.73,0,0,0,.88.16c.32,0,.63,0,.92,0h.4a2.39,2.39,0,0,1,.44,0,3.35,3.35,0,0,1,.32.28,1.12,1.12,0,0,1,.32.24.68.68,0,0,1,.24.12,1,1,0,0,0,.28.12,1.79,1.79,0,0,1,1,.36,10.53,10.53,0,0,1,.88.64v.24a.67.67,0,0,0,0,.24.45.45,0,0,0,.24.36,1.35,1.35,0,0,0,.28,0,.63.63,0,0,1,.32.08c0,.1.12.22.2.36a2.63,2.63,0,0,1,.28.4l.32.32a.88.88,0,0,1,.24.36.56.56,0,0,1,.12.2l.12.2.24.24a.61.61,0,0,1,.16.32,2.42,2.42,0,0,0,.24.56,2,2,0,0,1,.24.6,1.34,1.34,0,0,0,.12.24,2.32,2.32,0,0,1,.24.28c.05.24.09.49.12.76A3.36,3.36,0,0,0,71.49,21.5Zm-5.6,1.44a.72.72,0,0,0-.08-.48.74.74,0,0,1-.08-.48c0-.06,0-.12-.12-.2a.79.79,0,0,1,0-.32.48.48,0,0,0,0-.2v-.2l-.52-.8a6.79,6.79,0,0,0-.52-.76c0-.06,0-.08-.08-.08a.49.49,0,0,1-.16-.16,3.63,3.63,0,0,1-1.48-.36,1.52,1.52,0,0,0-1.16,0,.28.28,0,0,0-.12,0l-.12.12h-.2a.66.66,0,0,0-.84.48c-.06.12-.13.24-.2.36a1.09,1.09,0,0,0-.12.36,1.65,1.65,0,0,1-.16.36,1.55,1.55,0,0,0-.2.32,2.2,2.2,0,0,0-.28.44,3,3,0,0,1-.28.44,3.24,3.24,0,0,1-.2.8,3.8,3.8,0,0,0-.16.76c.08.13.16.28.24.44a2.14,2.14,0,0,1,.2.4,1.93,1.93,0,0,1,.2,1,.34.34,0,0,0,0,.16l.08.16c.24.05.47.1.68.16a4.07,4.07,0,0,1,.68.2,5.59,5.59,0,0,0,.56.12,1.1,1.1,0,0,0,.56-.08h.12a1.77,1.77,0,0,0,.6,0c.21-.06.44-.11.68-.16l.56-.44a3.59,3.59,0,0,1,.64-.4,4.2,4.2,0,0,1,.68-1,2.55,2.55,0,0,0,.56-1ZM18.6,39.18q-.08.48-.12,1v.92c0,.37,0,.73,0,1.08a8.34,8.34,0,0,1-.08,1.08.61.61,0,0,0,0,.24c0,.26.07.53.12.8a1.23,1.23,0,0,1,0,.68.68.68,0,0,0,0,.4.69.69,0,0,1,0,.4l-.08.16-.08.16-.4.08h-.36a1.59,1.59,0,0,0-.24.16l-.24.16-.28-.16a.41.41,0,0,0-.2-.12h-.2a.23.23,0,0,0-.2,0,1.72,1.72,0,0,1-.76.08,3.84,3.84,0,0,0-.76-.08,2.37,2.37,0,0,0-.76.12,4.23,4.23,0,0,0-.68.24,1.77,1.77,0,0,1-.6.2,1.69,1.69,0,0,0-.6.12.69.69,0,0,0-.16.52,6,6,0,0,1,.12.72,1.27,1.27,0,0,1-.08.76.31.31,0,0,0,0,.2,2,2,0,0,1,.16.8,5.16,5.16,0,0,1-.08.84,7,7,0,0,0,0,.8,4.91,4.91,0,0,1-.08.8,1.64,1.64,0,0,0,0,.8,2.59,2.59,0,0,1,0,.48V54c0,.18,0,.24,0,.16v0a.12.12,0,0,1,0,.08v0a5.88,5.88,0,0,1,0,1,3.86,3.86,0,0,1,0,.6c0,.16-.08.41-.16.76v.2a5.19,5.19,0,0,1,.16,1.32c0,.42,0,.85,0,1.28v.88a4.12,4.12,0,0,0,.2.92c0,.16-.07.34-.12.56a4.74,4.74,0,0,1-.2.56.66.66,0,0,1-.16.28,1.45,1.45,0,0,1-.28.28,4.85,4.85,0,0,0-1.8.16A1.1,1.1,0,0,1,8.48,63L8.4,62.9a1.22,1.22,0,0,0-1.16-.12.82.82,0,0,1-.48.08,2.18,2.18,0,0,0-.44,0,.63.63,0,0,0-.48.2.43.43,0,0,1-.52,0,1.51,1.51,0,0,1,0-.6,2.4,2.4,0,0,0,.16-.64,2.94,2.94,0,0,0-.16-.6c-.05-.22-.11-.43-.16-.64l.12-.36a1.47,1.47,0,0,0,0-.36.9.9,0,0,0,0-.4V59a8,8,0,0,0,0-1.2,9.67,9.67,0,0,0-.08-1.2c0-.32-.09-.63-.12-.92s0-.66,0-1a2.36,2.36,0,0,0,.2-.32,2.92,2.92,0,0,1,.28-.32c0-.22,0-.32,0-.32v-.4a7.49,7.49,0,0,1,0-1.16A7.88,7.88,0,0,1,5.8,51q0-.43-.12-.84a3,3,0,0,0-.28-.84c0-.14.11-.27.16-.4a1.74,1.74,0,0,0,.16-.36,1.75,1.75,0,0,1,0-.56.72.72,0,0,0,0-.52.35.35,0,0,0-.2-.2,5.27,5.27,0,0,1-.56,0,3.52,3.52,0,0,0-.56,0,2.16,2.16,0,0,1-.56-.08.77.77,0,0,0-.52,0,.62.62,0,0,1-.48,0,.62.62,0,0,0-.44-.08h-1l-1-.16a.34.34,0,0,1-.2-.12A.35.35,0,0,1,0,46.54v-.28a4.21,4.21,0,0,0,.12-.48,1.06,1.06,0,0,0,0-.56.16.16,0,0,1,0-.12.94.94,0,0,0,0-.16,7.6,7.6,0,0,0,.16-1.68A16.31,16.31,0,0,0,.2,41.58V41.1a1.23,1.23,0,0,1,.08-.44.55.55,0,0,1,.4-.2l.4-.08.36-.16a.83.83,0,0,1,.36-.16,2.32,2.32,0,0,1,1.72,0l.28.08A1.41,1.41,0,0,1,4.56,40a2.06,2.06,0,0,0,.84-.2,1,1,0,0,1,.24,0H6l.72-.32a2.7,2.7,0,0,0,.76-.48,5.72,5.72,0,0,1,1.24,0,3,3,0,0,0,1.2-.16,1.14,1.14,0,0,1,.48.16,2.21,2.21,0,0,1,.4.16.62.62,0,0,0,.44-.16.66.66,0,0,1,.48-.24,2.12,2.12,0,0,1,.92,0,.91.91,0,0,1,.48.24.92.92,0,0,0,.56.12,1.77,1.77,0,0,0,.32-.24l.36-.24a1.34,1.34,0,0,1,.52.12,1.35,1.35,0,0,0,.52,0l.52-.08a2.27,2.27,0,0,1,.68-.08,1,1,0,0,1,.32.12,1,1,0,0,1,.32.12,2.11,2.11,0,0,1,.48-.12l.56-.08.16.24Zm10.28,1.88a1.19,1.19,0,0,1,.08.6,5.59,5.59,0,0,1-.12.56,1.81,1.81,0,0,1-.16.48,2.14,2.14,0,0,0-.2.4,4.94,4.94,0,0,1-.36.44l-.32.4a.32.32,0,0,0-.2.16l-.2.16a3.93,3.93,0,0,1-.88.4,4.3,4.3,0,0,1-1,.16.66.66,0,0,1-.32-.08h-.48a2.25,2.25,0,0,0-.44,0,2,2,0,0,0-.28-.16,1.08,1.08,0,0,1-.2-.16,1,1,0,0,0-.44-.08H23a1.36,1.36,0,0,0-.4-.2,2.49,2.49,0,0,0-.4-.2L22,43.18c0-.22.05-.44.08-.68a2.16,2.16,0,0,0-.08-.8c-.08-.06-.08-.12,0-.2a.68.68,0,0,0,0-.56.68.68,0,0,1,0-.56.67.67,0,0,0,0-.24.43.43,0,0,1,0-.44l.2-.4a.67.67,0,0,1,0-.24v-.24a.2.2,0,0,0,0-.08.18.18,0,0,1,.12-.12,1.24,1.24,0,0,0,.52-.28,1.62,1.62,0,0,1,.52-.36,2.42,2.42,0,0,1,.6-.4l.68-.32h.56a1.34,1.34,0,0,1,.48.08,1.11,1.11,0,0,0,.28,0h.32a.82.82,0,0,1,.88.44.38.38,0,0,0,.28.24,1.09,1.09,0,0,1,.36.12,1.69,1.69,0,0,1,.52.92l.16.48a1.81,1.81,0,0,1,.16.48,3.62,3.62,0,0,1,.12.52,4.21,4.21,0,0,1,.12.48Zm-.24,9.2a1.58,1.58,0,0,0-.08.56v.6a3,3,0,0,1,0,.6,3.43,3.43,0,0,0,0,.56l-.28.4a.84.84,0,0,1,.24.44,4.07,4.07,0,0,1,0,.52v.6c0,.18,0,.38,0,.6a4.44,4.44,0,0,1-.16.6,4.07,4.07,0,0,0-.2.68c0,.26,0,.58,0,1s0,.69,0,1A8.33,8.33,0,0,1,28,60a4.89,4.89,0,0,1-.48,1.44,2.39,2.39,0,0,0,.08.64l.16.6a.2.2,0,0,1,0,.08.29.29,0,0,0,0,.16,2.73,2.73,0,0,1-.48.48.09.09,0,0,0-.08,0H27c-.3,0-.6,0-.92,0a2.64,2.64,0,0,1-1,0l-.36-.2a1.43,1.43,0,0,0-.36-.2,3.58,3.58,0,0,1-.4,0,2.58,2.58,0,0,1-.4,0c-.22-.25-.44-.5-.64-.76a.77.77,0,0,0-.28-.12,1.75,1.75,0,0,1-.32-.12.58.58,0,0,1-.2-.64,4,4,0,0,1,.2-.76,1.88,1.88,0,0,0,0-1L22.12,59c0-.2,0-.4,0-.6a1.75,1.75,0,0,1,0-.56,4.82,4.82,0,0,0,0-.76V56.3c0-.38,0-.74,0-1.08V54.14c0-.14,0-.22,0-.24a1.22,1.22,0,0,0,.2-.6v-.64a2.29,2.29,0,0,1,0-.64,1.38,1.38,0,0,0,0-.64V50.7a5.79,5.79,0,0,1,0-.72,2.85,2.85,0,0,0,0-.4,1.34,1.34,0,0,0,0-.52,5.29,5.29,0,0,1,.6-.24,1.65,1.65,0,0,1,.52-.08h.32a2,2,0,0,0,.36,0l.68-.16a.57.57,0,0,1,.32.16l.32.16a1.45,1.45,0,0,0,.56-.12.88.88,0,0,1,.48,0,.58.58,0,0,1,.36.4.12.12,0,0,1,0,.08l.08.08.28.16a.74.74,0,0,0,.48-.08.84.84,0,0,1,.4-.2c.16,0,.25.06.28.2a2.76,2.76,0,0,1,.16.84Zm30.51,4.68c0,.21-.06.45-.08.72s0,.48,0,.72a4.22,4.22,0,0,0,0,.6,1.77,1.77,0,0,1-.12.6,1,1,0,0,0-.08.44v.88a2.85,2.85,0,0,1,0,.4c0,.21-.07.44-.12.68s-.07.43-.12.64l-.12.36-.16.28-.28.28a.56.56,0,0,1-.56.16,1.52,1.52,0,0,0-.4-.12.4.4,0,0,0-.36.12,2.23,2.23,0,0,0-.68-.32h-.44a.42.42,0,0,1-.16,0,.32.32,0,0,0-.16,0l-.24.08a.76.76,0,0,0-.2.08,1,1,0,0,1-.32,0,1.09,1.09,0,0,1-.44-.88,4.62,4.62,0,0,0-.16-.84l-.24-.88a2.19,2.19,0,0,0,0-.68,5.79,5.79,0,0,1,0-.72,1.34,1.34,0,0,0,0-.4.66.66,0,0,1,.16-.44A5.56,5.56,0,0,1,54,55.5a1.09,1.09,0,0,0,0-.36,3.8,3.8,0,0,0-.16-.76,2.76,2.76,0,0,0-.28-.76,1.18,1.18,0,0,0-.2-.28.36.36,0,0,0-.28-.2,1.27,1.27,0,0,0-.36-.2,3,3,0,0,1-.36-.16,3,3,0,0,1-.48.16l-.2-.08-.2-.08a.21.21,0,0,1-.12,0,.09.09,0,0,0-.08,0,2.14,2.14,0,0,1-.6.6.57.57,0,0,0-.32.2L50,53.9a.65.65,0,0,1-.32.16,1.9,1.9,0,0,0-.36.12l-.08.24a.46.46,0,0,1-.08.24l-.12.2c0,.06-.05.13-.08.2a3.6,3.6,0,0,0-.24,1,.61.61,0,0,0,0,.24.42.42,0,0,1,0,.4,1.47,1.47,0,0,0-.16.28l-.08,1.36c0,.45,0,.9,0,1.36a2.15,2.15,0,0,1,0,.4,5.36,5.36,0,0,0-.16.52,4.87,4.87,0,0,1-.12.52L47.19,61h-.44a3.88,3.88,0,0,1-.48,0H44.91a5.09,5.09,0,0,1-.56,0,.69.69,0,0,1-.64-.32c-.11-.32-.2-.64-.28-1a4.55,4.55,0,0,1-.12-1V58.3a.7.7,0,0,1,.12-.28,2.59,2.59,0,0,0,.08-.56,4.22,4.22,0,0,0,0-.52,7.49,7.49,0,0,1,0-1.16,6.53,6.53,0,0,0,0-1.16.9.9,0,0,1,0-.28V54.1a1.9,1.9,0,0,0-.12-.36.4.4,0,0,1,0-.32V53a2.85,2.85,0,0,0,0-.4,2.32,2.32,0,0,0-.24-.28,1.61,1.61,0,0,0-.24-.28h-.28L42.39,52l-.4-.2a2.14,2.14,0,0,0-.4-.2,2.83,2.83,0,0,0-.36-.16A1.69,1.69,0,0,0,41,51.3a4.22,4.22,0,0,0-.68.32L40,51.7a1,1,0,0,0-.28,0l-.44.4-.44.44a22132023125727.1,22132023125727.1,0,0,1-.32.72,7.56,7.56,0,0,0-.4,1.16A5.86,5.86,0,0,0,38,55.7V57a12.55,12.55,0,0,1-.08,1.36c-.06.42-.12.86-.2,1.32a1.85,1.85,0,0,1-.16.52,4.32,4.32,0,0,0-.16.56,5.49,5.49,0,0,1-.44.52,1.55,1.55,0,0,1-.56.28,3,3,0,0,0-.76,0,2.63,2.63,0,0,0-.72.2l-.32.08-.32.08a1.09,1.09,0,0,1-.36,0l-.56-.16c-.13-.18-.26-.36-.4-.52l-.4-.56a1,1,0,0,0,0-.24.76.76,0,0,1,.08-.2,3.35,3.35,0,0,0,0-1c-.08-.32-.15-.64-.2-1a8.63,8.63,0,0,0-.2-.88,1,1,0,0,1,.12-.52,1.16,1.16,0,0,0,.2-.52,2.49,2.49,0,0,0,.08-.64c0-.27,0-.52.08-.76v-.76a2.64,2.64,0,0,1,.08-.72,1.15,1.15,0,0,0,0-.36,3.73,3.73,0,0,1,.08-1.56,1.16,1.16,0,0,0,.08-.32A.62.62,0,0,1,33,51a.56.56,0,0,1,.32-.32,1.41,1.41,0,0,0,.36-.24.88.88,0,0,0,.08-.72,5,5,0,0,1-.12-.76l.16-.4A4.21,4.21,0,0,0,34,48.1a5,5,0,0,0,.56-.68l.52-.68a.43.43,0,0,0,.08-.28.27.27,0,0,1,.16-.28.29.29,0,0,1,.16,0l.16-.08,1.36-.4q.67-.21,1.32-.48a3.42,3.42,0,0,1,1.44-.32h.16a.34.34,0,0,1,.2,0,3.66,3.66,0,0,1,1-.24c.37,0,.74,0,1.12,0h.48a1.64,1.64,0,0,1,.4.12.88.88,0,0,1,.44.2c.21.1.41.21.6.32a2.94,2.94,0,0,0,.68.16.4.4,0,0,1,.24.16l.24.16a1.22,1.22,0,0,1,.32.36l.32.4a1.52,1.52,0,0,1,.12.36,1.52,1.52,0,0,1,.12.36l.32.32a.52.52,0,0,0,.44.12,3.42,3.42,0,0,1,.4-.36l.36-.4a1.49,1.49,0,0,0,.36,0l1-.68a1.19,1.19,0,0,1,.16-.32,1.39,1.39,0,0,0,.12-.28,1.75,1.75,0,0,1,.4,0l.4-.08a2.37,2.37,0,0,1,.52-.24c.16-.08.32-.18.48-.28a1.87,1.87,0,0,1,.4,0H52a1.65,1.65,0,0,0,.32,0,.5.5,0,0,1,.36,0,5.31,5.31,0,0,0,1,.2,6.15,6.15,0,0,1,1,.08.48.48,0,0,0,.32.08l.88.84a.12.12,0,0,0,0,.08.12.12,0,0,1,0,.08,2.54,2.54,0,0,0,1.2,1.48.65.65,0,0,1,0,.24.93.93,0,0,0,.08.2.72.72,0,0,0,.52.24c.32.05.46.2.44.44a4,4,0,0,0,.12,1c.1.32.21.62.32.92l.28,1v.64c0,.24,0,.46,0,.68v.32l.08.28A2.64,2.64,0,0,1,59.15,54.94ZM79.9,48.3c0,.28-.05.56-.08.84a4.43,4.43,0,0,1-.08.8,7.9,7.9,0,0,0,0,.88,2.83,2.83,0,0,1-.16.92l-.2.28a1.48,1.48,0,0,0-.24.32v.28c0,.08.05.17.08.28a1.19,1.19,0,0,1-.24.36,2.8,2.8,0,0,1-.32.2l-.76.24a5.31,5.31,0,0,1-.68.2,6.34,6.34,0,0,1-1.16,0,5.36,5.36,0,0,0-1.2,0c-.35,0-.72,0-1.12,0H70.3a.45.45,0,0,1-.36.08.4.4,0,0,0-.32,0,.38.38,0,0,0-.36,0,.79.79,0,0,1-.4,0l-.32.08a1.45,1.45,0,0,0-.32,0l-.28-.08c-.08-.06-.17,0-.28,0a2.32,2.32,0,0,1,.16.28.61.61,0,0,1,.16.32,1.55,1.55,0,0,1,.2.32,3.17,3.17,0,0,1,.16.36,1.52,1.52,0,0,1,.12.36l.08.32c.13.13.28.26.44.4l.48.4.4.08.44.08.48.08a2.26,2.26,0,0,0,.52,0,.67.67,0,0,1,.52,0,3.62,3.62,0,0,0,.52.12l.72-.08.76-.08a1.87,1.87,0,0,1,.32-.2l.36-.24a1.94,1.94,0,0,1,1,0,4.21,4.21,0,0,0,.28.4,3.13,3.13,0,0,1,.36.44l.48.72A1.69,1.69,0,0,1,77,59a1.57,1.57,0,0,0,.24.4,1.6,1.6,0,0,1,.24.36.56.56,0,0,1,0,.36c0,.12-.06.24-.08.36a1.77,1.77,0,0,1-.4.28s0,0-.08.08a.34.34,0,0,1-.12.12l-.48.32a4.48,4.48,0,0,0-.44.32,1.76,1.76,0,0,1-1.16.48,1.47,1.47,0,0,0-.76.2,2.55,2.55,0,0,1-.44.2,1.81,1.81,0,0,0-.4,0,2.64,2.64,0,0,1-.4.12l-.28,0h-.32a2.49,2.49,0,0,1-.72,0,2.94,2.94,0,0,0-.72-.08l-.24-.08a.67.67,0,0,0-.24,0,3,3,0,0,1-1.28-.2l-1.2-.56a1.06,1.06,0,0,1-.68-.44,2.29,2.29,0,0,0-.64-.52,2.82,2.82,0,0,0-.72-.4l-.48-.2a5.58,5.58,0,0,0-.52-.32,1.75,1.75,0,0,0-.12-.32l-.16-.32a.91.91,0,0,0-.24-.24l-.24-.24a1.31,1.31,0,0,1-.2-.28c-.13-.44-.26-.88-.4-1.32a7.55,7.55,0,0,0-.52-1.32,3.6,3.6,0,0,0,0-.56,2,2,0,0,0,0-.68.48.48,0,0,1,0-.2v-.52a.45.45,0,0,0,0-.28l-.08-.64a1.51,1.51,0,0,1,0-.6l.16-.64c0-.22.12-.44.2-.68a.67.67,0,0,1,0-.24,1.12,1.12,0,0,0,0-.32l.16-.88a6.47,6.47,0,0,1,.2-.84c.08-.16.16-.31.24-.44l.32-.48a5.85,5.85,0,0,0,.44-.92l.56-.28a.76.76,0,0,0,.2-.2,3.37,3.37,0,0,1,.52-.48c0-.08,0-.2.2-.36s.21-.3.16-.4A2.64,2.64,0,0,1,67,44l.44-.32.4-.36a.46.46,0,0,1,.36-.08h.36a.67.67,0,0,1,.24,0l.32-.08a.76.76,0,0,1,.2-.08.67.67,0,0,0,.2-.12l.16-.08a.29.29,0,0,1,.16,0,2.23,2.23,0,0,0,.68-.2l.6-.32a2.5,2.5,0,0,0,1.24.16,2.13,2.13,0,0,1,.76,0,4.14,4.14,0,0,1,.72.2l.56-.16a1.42,1.42,0,0,1,.6.2l.56.32h.36l.08.08a.1.1,0,0,1,.08,0l.84.76.84.68a1.71,1.71,0,0,1,.76,1,2.68,2.68,0,0,0,.28.36A3.38,3.38,0,0,1,79.62,47v.24a.67.67,0,0,1,0,.24.52.52,0,0,0,.08.4,1.29,1.29,0,0,1,.16.44Zm-5.08,1.32v-1c0-.14,0-.22,0-.24a.9.9,0,0,0-.12-.24.4.4,0,0,0-.08-.16V47.3l-.12-.12a1.41,1.41,0,0,1-.4-.08,1.78,1.78,0,0,0-.2-.56.48.48,0,0,0-.32-.2,3.17,3.17,0,0,1-.44-.12c-.35.1-.72.2-1.12.28a7.35,7.35,0,0,0-1.16.32,5.13,5.13,0,0,1-.52,0,2.59,2.59,0,0,0-.48,0,1.85,1.85,0,0,0-.72.52l-.56.64a2.2,2.2,0,0,0-.28.44,3,3,0,0,1-.28.44s0,.1,0,.24a.63.63,0,0,0,.36.4,2.11,2.11,0,0,1,.48.12l.52.16a.45.45,0,0,1,.2,0,1,1,0,0,0,.24,0,.91.91,0,0,1,.8,0,2.61,2.61,0,0,0,.56,0l.56-.08a1.81,1.81,0,0,0,.48.16,2.08,2.08,0,0,1,.52.12,3.65,3.65,0,0,0,1,.16,4,4,0,0,0,1-.12.6.6,0,0,0,.2-.36Z"/></g></g></svg>