<svg xmlns="http://www.w3.org/2000/svg" width="148" height="148" fill="none" viewBox="0 0 148 148">
  <circle cx="74" cy="74" r="74" fill="#FFC727"/>
  <path fill="#151313" d="M57.798 51.4c-.04.16-.12.4-.24.72-.08.32-.16.66-.24 1.02l-.12.48v.36c-.04.2-.06.4-.06.6V55l-.84 1.56c-.24.48-.42 1-.54 1.56-.16.64-.42 1.24-.78 1.8-.36.52-.7 1.06-1.02 1.62-.16.16-.3.32-.42.48-.12.12-.24.26-.36.42-.44.16-.86.36-1.26.6-.4.2-.76.46-1.08.78-.04.04-.12.08-.24.12l-.24.12c-.44.16-.88.34-1.32.54l-1.32.6-1.62-.24c-.28.04-.56.1-.84.18-.28.12-.54.22-.78.3a.919.919 0 0 1-.66-.42c-.12-.08-.24-.18-.36-.3-.12-.08-.28-.08-.48 0a.65.65 0 0 1-.6-.18c-.16-.16-.34-.28-.54-.36-.12.04-.24.06-.36.06-.08.04-.22.08-.42.12l-.96-.24c-.36 0-.7.06-1.02.18-.2-.08-.4-.18-.6-.3-.2-.12-.44-.18-.72-.18-.28 0-.56-.04-.84-.12-.24-.12-.5-.2-.78-.24l-.72-.12-.6-.12a.906.906 0 0 1-.36-.3l-.24-.36c-.16-.08-.28-.12-.36-.12a.89.89 0 0 0-.42-.24c-.16-.08-.34-.14-.54-.18-.28-.12-.52-.26-.72-.42-.2-.2-.4-.38-.6-.54-.28-.32-.54-.62-.78-.9-.2-.32-.46-.62-.78-.9l-.3-.6c-.2-.24-.38-.44-.54-.6-.12-.16-.34-.32-.66-.48h-.72c-.04 0-.08-.04-.12-.12-.04-.08-.04-.14 0-.18l.12-.48c.04-.2.08-.38.12-.54 0-.2-.06-.38-.18-.54-.08-.16-.16-.34-.24-.54-.04-.84-.18-1.64-.42-2.4-.2-.8-.42-1.6-.66-2.4v-1.74c.12-.12.22-.26.3-.42.12-.16.22-.3.3-.42l-.12-.6c0-.2.02-.4.06-.6 0-.24-.02-.48-.06-.72l-.12-.84c0-.04.02-.12.06-.24.04-.16.06-.32.06-.48.04-.12.06-.24.06-.36.04-.16.04-.32 0-.48-.08-.32-.1-.62-.06-.9.04-.32.08-.66.12-1.02.08-.28.16-.54.24-.78.08-.28.1-.56.06-.84 0-.24.04-.4.12-.48.2-.24.32-.5.36-.78.04-.28.08-.54.12-.78.2-.36.42-.72.66-1.08.28-.4.6-.74.96-1.02l.36-.48c.12-.16.24-.3.36-.42.72-.72 1.28-1.5 1.68-2.34.16-.12.3-.22.42-.3.16-.08.32-.18.48-.3.04-.12.12-.2.24-.24.16-.8.68-1.32 1.56-1.56h.3l.48-.12c.12-.08.26-.18.42-.3.2-.16.38-.28.54-.36.12-.16.28-.28.48-.36.2-.12.4-.22.6-.3.24-.04.46-.12.66-.24.2-.16.4-.28.6-.36.48-.08.9-.06 1.26.06.8.28 1.54.22 2.22-.18.28-.16.56-.24.84-.24.32-.04.58-.16.78-.36.44.16.86.3 1.26.42l1.2.24c.4.08.8.2 1.2.36.4.12.78.24 1.14.36l1.2.48c.4.16.76.34 1.08.54.16.08.3.14.42.18.16 0 .3.04.42.12.2.08.38.16.54.24.16.04.3.1.42.18.12.16.22.32.3.48.12.16.26.32.42.48.08.08.18.16.3.24.12.04.24.1.36.18.28.16.5.36.66.6.2.2.3.46.3.78 0 .16.06.3.18.42.16.12.26.28.3.48-.2.4-.36.78-.48 1.14-.16.52-.48.92-.96 1.2-.04.04-.08.1-.12.18 0 .04-.02.1-.06.18.08.44.02.82-.18 1.14-.2.32-.44.64-.72.96v.48c0 .12-.1.2-.3.24-.04-.04-.14 0-.3.12-.16.08-.26.16-.3.24-.04.16-.16.28-.36.36-.16.04-.3.02-.42-.06-.2-.24-.48-.36-.84-.36l-.06-.06-.12-.12c-.04-.08-.08-.12-.12-.12-.24-.08-.44-.12-.6-.12-.6 0-1.1-.32-1.5-.96-.04-.08-.12-.18-.24-.3-.52-.2-1.02-.4-1.5-.6-.48-.24-1-.4-1.56-.48-.4.04-.78.06-1.14.06-.36-.04-.76.02-1.2.18l-.78.78c-.28.12-.56.22-.84.3-.24.04-.48.1-.72.18-.2.16-.42.28-.66.36-.24.04-.48.16-.72.36-.12.08-.28.28-.48.6v.66c-.24.12-.46.18-.66.18-.08.16-.14.32-.18.48v.42c0 .56-.08 1.08-.24 1.56-.04.28-.08.58-.12.9-.04.32-.1.64-.18.96-.04.04-.06.12-.06.24.04.08.06.16.06.24.08.2.1.32.06.36-.04.28-.08.58-.12.9-.04.28-.02.56.06.84.08.28.14.56.18.84.04.28.08.58.12.9.08.16.12.32.12.48.04.16.08.34.12.54.16.24.34.46.54.66-.04.16-.06.34-.06.54 0 .16-.02.34-.06.54.04.32.16.62.36.9.2.24.36.52.48.84.2.16.42.3.66.42.24.08.42.24.54.48.32.24.62.48.9.72.32.24.62.5.9.78.16.04.3.08.42.12.16.04.32.1.48.18l1.32-.24c.44-.08.9-.18 1.38-.3.12 0 .24.02.36.06.12 0 .26.02.42.06h.36c.16-.04.26-.1.3-.18.16-.12.28-.24.36-.36.12-.16.26-.3.42-.42.12-.08.24-.14.36-.18.12-.08.22-.16.3-.24.24-.28.44-.56.6-.84l.48-.84c0-.24-.04-.48-.12-.72-.04-.24-.1-.46-.18-.66-.08-.36-.34-.58-.78-.66-.32-.08-.54-.1-.66-.06-.56.16-1.12.22-1.68.18-.52-.04-1.04-.02-1.56.06-.16-.12-.38-.22-.66-.3-.12-.16-.14-.28-.06-.36.12-.28.22-.54.3-.78.08-.24.1-.5.06-.78 0-.64.06-1.26.18-1.86.12-.6.24-1.18.36-1.74.24-.4.6-.6 1.08-.6l1.2-.24c.4-.12.78-.28 1.14-.48.36-.04.72-.04 1.08 0 .36 0 .7.08 1.02.24.52.04 1.02.1 1.5.18.52.04 1.04.04 1.56 0l.24.12c.12.04.2.1.24.18.12-.12.3-.26.54-.42.2.08.4.18.6.3.2.12.38.22.54.3.08.04.18.06.3.06.16 0 .3.02.42.06.32.16.62.36.9.6.32.24.62.4.9.48.36.36.5.72.42 1.08-.04.32-.18.62-.42.9 0 .24-.02.48-.06.72 0 .24.02.48.06.72.04.16.08.36.12.6.08.24.08.58 0 1.02Zm31.765-3.78c.12.48.1.92-.06 1.32-.08.2-.14.4-.18.6-.04.2-.04.4 0 .6.04.04.04.1 0 .18v.18c-.16.32-.24.66-.24 1.02.04.36.08.7.12 1.02l-.6.84v.78l-.3.3c-.12.08-.28.2-.48.36-.08.28-.2.58-.36.9-.12.32-.22.62-.3.9v.6c-.16.16-.36.3-.6.42s-.44.3-.6.54c-.16.12-.32.22-.48.3-.16.08-.34.18-.54.3-.08.04-.18.06-.3.06a.255.255 0 0 0-.24 0c-.6 0-.9.28-.9.84-.44.28-.88.58-1.32.9-.4.32-.82.64-1.26.96-.68.52-1.56.88-2.64 1.08-.36.04-.7.14-1.02.3-.32.12-.66.22-1.02.3-.08 0-.18-.02-.3-.06-.12-.04-.22-.04-.3 0-.48.04-.98 0-1.5-.12a.975.975 0 0 0-.48 0c-.16.04-.3.08-.42.12l-.84-.12c-.28-.04-.58-.08-.9-.12-.36-.16-.7-.34-1.02-.54a6.7 6.7 0 0 0-.9-.54c-.24-.08-.46-.22-.66-.42-.2-.2-.36-.4-.48-.6a.392.392 0 0 0-.18-.18.94.94 0 0 0-.18-.24c-.12-.08-.24-.14-.36-.18-.12-.08-.24-.18-.36-.3-.64-.44-1.22-.92-1.74-1.44-.48-.52-.84-1.16-1.08-1.92-.2-.52-.44-.98-.72-1.38-.08-.16-.18-.3-.3-.42l-.24-.48c.04-.08.1-.24.18-.48l-.24-.36a.74.74 0 0 1-.12-.42c0-.12-.02-.24-.06-.36 0-.16.02-.32.06-.48.08-.28.1-.56.06-.84-.04-.28-.04-.56 0-.84.04-.24.02-.5-.06-.78-.04-.28 0-.54.12-.78.08-.28.14-.54.18-.78.04-.24.1-.48.18-.72.08-.24.16-.46.24-.66.08-.24.16-.46.24-.66l.24-.72c.08-.24.2-.5.36-.78v-.3c0-.12.02-.2.06-.24.16-.32.28-.62.36-.9.08-.28.1-.56.06-.84.16-.2.3-.36.42-.48s.22-.26.3-.42c.08-.2.16-.38.24-.54.12-.2.24-.38.36-.54.12-.32.3-.6.54-.84.16-.2.3-.36.42-.48.12-.16.22-.28.3-.36.12-.24.16-.44.12-.6-.04-.2-.06-.36-.06-.48.08-.2.14-.32.18-.36.12-.04.22-.1.3-.18.12-.08.24-.14.36-.18.32-.2.66-.4 1.02-.6.36-.2.72-.36 1.08-.48.36-.24.72-.4 1.08-.48l1.2-.36h.96c.32 0 .62.02.9.06h.54c.44.16.88.24 1.32.24.48 0 .94-.02 1.38-.06h.6c.24-.04.46-.06.66-.06.2.16.36.3.48.42.16.08.32.2.48.36.12.04.24.1.36.18.12.08.26.14.42.18.56.04 1.06.22 1.5.54.48.32.92.64 1.32.96v.36c0 .12.02.24.06.36 0 .2.12.38.36.54.12.04.26.06.42.06.16 0 .32.04.48.12.08.16.18.34.3.54.16.2.3.4.42.6l.48.48c.16.16.28.34.36.54.08.08.14.18.18.3.08.12.14.22.18.3l.36.36c.12.12.2.28.24.48.08.28.2.56.36.84.16.28.28.58.36.9.04.12.1.24.18.36.12.12.24.26.36.42.08.36.14.74.18 1.14.08.4.2.78.36 1.14Zm-8.4 2.16c.04-.28 0-.52-.12-.72-.12-.24-.16-.48-.12-.72 0-.08-.06-.18-.18-.3-.04-.08-.06-.24-.06-.48.04-.08.06-.18.06-.3v-.3c-.28-.44-.54-.84-.78-1.2-.24-.4-.5-.78-.78-1.14 0-.08-.04-.12-.12-.12a.68.68 0 0 1-.24-.24c-.68 0-1.42-.18-2.22-.54-.48-.24-1.06-.26-1.74-.06-.04 0-.1.02-.18.06l-.18.18h-.3c-.64-.12-1.06.12-1.26.72-.08.16-.18.34-.3.54-.08.16-.14.34-.18.54-.04.16-.12.34-.24.54-.12.16-.22.32-.3.48-.16.2-.3.42-.42.66-.12.24-.26.46-.42.66-.04.4-.14.8-.3 1.2-.12.4-.2.78-.24 1.14.12.2.24.42.36.66.12.2.22.4.3.6.24.52.34 1.02.3 1.5 0 .08.02.16.06.24l.12.24c.36.08.7.16 1.02.24.36.08.7.18 1.02.3.28.08.56.14.84.18.28.04.56 0 .84-.12h.18c.32.08.62.1.9.06.32-.08.66-.16 1.02-.24.28-.2.56-.42.84-.66.32-.24.64-.44.96-.6.28-.56.62-1.06 1.02-1.5.4-.44.68-.94.84-1.5Zm40.1-2.16c.12.48.1.92-.06 1.32-.08.2-.14.4-.18.6-.04.2-.04.4 0 .6.04.04.04.1 0 .18v.18c-.16.32-.24.66-.24 1.02.04.36.08.7.12 1.02l-.6.84v.78l-.3.3c-.12.08-.28.2-.48.36-.08.28-.2.58-.36.9-.12.32-.22.62-.3.9v.6c-.16.16-.36.3-.6.42s-.44.3-.6.54c-.16.12-.32.22-.48.3-.16.08-.34.18-.54.3-.08.04-.18.06-.3.06a.255.255 0 0 0-.24 0c-.6 0-.9.28-.9.84-.44.28-.88.58-1.32.9-.4.32-.82.64-1.26.96-.68.52-1.56.88-2.64 1.08-.36.04-.7.14-1.02.3-.32.12-.66.22-1.02.3-.08 0-.18-.02-.3-.06-.12-.04-.22-.04-.3 0-.48.04-.98 0-1.5-.12a.975.975 0 0 0-.48 0c-.16.04-.3.08-.42.12l-.84-.12c-.28-.04-.58-.08-.9-.12-.36-.16-.7-.34-1.02-.54a6.7 6.7 0 0 0-.9-.54c-.24-.08-.46-.22-.66-.42-.2-.2-.36-.4-.48-.6a.392.392 0 0 0-.18-.18.94.94 0 0 0-.18-.24c-.12-.08-.24-.14-.36-.18-.12-.08-.24-.18-.36-.3-.64-.44-1.22-.92-1.74-1.44-.48-.52-.84-1.16-1.08-1.92-.2-.52-.44-.98-.72-1.38-.08-.16-.18-.3-.3-.42l-.24-.48c.04-.08.1-.24.18-.48l-.24-.36a.74.74 0 0 1-.12-.42c0-.12-.02-.24-.06-.36 0-.16.02-.32.06-.48.08-.28.1-.56.06-.84-.04-.28-.04-.56 0-.84.04-.24.02-.5-.06-.78-.04-.28 0-.54.12-.78.08-.28.14-.54.18-.78.04-.24.1-.48.18-.72.08-.24.16-.46.24-.66.08-.24.16-.46.24-.66l.24-.72c.08-.24.2-.5.36-.78v-.3c0-.12.02-.2.06-.24.16-.32.28-.62.36-.9.08-.28.1-.56.06-.84.16-.2.3-.36.42-.48s.22-.26.3-.42c.08-.2.16-.38.24-.54.12-.2.24-.38.36-.54.12-.32.3-.6.54-.84.16-.2.3-.36.42-.48.12-.16.22-.28.3-.36.12-.24.16-.44.12-.6-.04-.2-.06-.36-.06-.48.08-.2.14-.32.18-.36.12-.04.22-.1.3-.18.12-.08.24-.14.36-.18.32-.2.66-.4 1.02-.6.36-.2.72-.36 1.08-.48.36-.24.72-.4 1.08-.48l1.2-.36h.96c.32 0 .62.02.9.06h.54c.44.16.88.24 1.32.24.48 0 .94-.02 1.38-.06h.6c.24-.04.46-.06.66-.06.2.16.36.3.48.42.16.08.32.2.48.36.12.04.24.1.36.18.12.08.26.14.42.18.56.04 1.06.22 1.5.54.48.32.92.64 1.32.96v.36c0 .12.02.24.06.36 0 .2.12.38.36.54.12.04.26.06.42.06.16 0 .32.04.48.12.08.16.18.34.3.54.16.2.3.4.42.6l.48.48c.16.16.28.34.36.54.08.08.14.18.18.3.08.12.14.22.18.3l.36.36c.12.12.2.28.24.48.08.28.2.56.36.84.16.28.28.58.36.9.04.12.1.24.18.36.12.12.24.26.36.42.08.36.14.74.18 1.14.08.4.2.78.36 1.14Zm-8.4 2.16c.04-.28 0-.52-.12-.72-.12-.24-.16-.48-.12-.72 0-.08-.06-.18-.18-.3-.04-.08-.06-.24-.06-.48.04-.08.06-.18.06-.3v-.3c-.28-.44-.54-.84-.78-1.2-.24-.4-.5-.78-.78-1.14 0-.08-.04-.12-.12-.12a.68.68 0 0 1-.24-.24c-.68 0-1.42-.18-2.22-.54-.48-.24-1.06-.26-1.74-.06-.04 0-.1.02-.18.06l-.18.18h-.3c-.64-.12-1.06.12-1.26.72-.08.16-.18.34-.3.54-.08.16-.14.34-.18.54-.04.16-.12.34-.24.54-.12.16-.22.32-.3.48-.16.2-.3.42-.42.66-.12.24-.26.46-.42.66-.04.4-.14.8-.3 1.2-.12.4-.2.78-.24 1.14.12.2.24.42.36.66.12.2.22.4.3.6.24.52.34 1.02.3 1.5 0 .08.02.16.06.24l.12.24c.36.08.7.16 1.02.24.36.08.7.18 1.02.3.28.08.56.14.84.18.28.04.56 0 .84-.12h.18c.32.08.62.1.9.06.32-.08.66-.16 1.02-.24.28-.2.56-.42.84-.66.32-.24.64-.44.96-.6.28-.56.62-1.06 1.02-1.5.4-.44.68-.94.84-1.5ZM41.928 79.14c-.08.48-.14.96-.18 1.44v1.38c0 .56-.02 1.1-.06 1.62 0 .52-.04 1.06-.12 1.62-.04.08-.06.2-.06.36.04.4.1.8.18 1.2.12.36.14.7.06 1.02-.08.2-.1.4-.06.6.04.2.02.4-.06.6l-.12.24-.12.24-.6.12h-.54c-.08.04-.2.12-.36.24l-.36.24c-.16-.08-.3-.16-.42-.24a.753.753 0 0 0-.3-.18h-.3c-.12-.04-.22-.04-.3 0-.28.12-.66.16-1.14.12-.44-.08-.82-.12-1.14-.12-.4 0-.78.06-1.14.18-.32.08-.66.2-1.02.36-.28.16-.58.26-.9.3-.28 0-.58.06-.9.18-.2.28-.28.54-.24.78.08.32.14.68.18 1.08.08.36.04.74-.12 1.14 0 .16.02.26.06.3.16.4.24.8.24 1.2 0 .4-.04.82-.12 1.26-.04.4-.06.8-.06 1.2 0 .36-.04.76-.12 1.2-.08.44-.06.84.06 1.2.04.24.06.48.06.72v.66c-.04.28-.06.36-.06.24v-.24.18c0 .04-.02.08-.06.12v.06c.04.68.04 1.2 0 1.56 0 .32-.02.62-.06.9-.04.24-.12.62-.24 1.14v.3c.16.64.24 1.3.24 1.98 0 .64-.02 1.28-.06 1.92v1.32c.04.44.14.9.3 1.38-.04.24-.1.52-.18.84-.08.28-.18.56-.3.84a.89.89 0 0 1-.24.42c-.08.12-.22.26-.42.42-.96-.08-1.86 0-2.7.24-.44.16-.9.1-1.38-.18l-.12-.12c-.6-.36-1.18-.42-1.74-.18-.24.12-.48.16-.72.12a4.04 4.04 0 0 0-.66-.06c-.28 0-.52.1-.72.3-.2.2-.46.22-.78.06-.04-.32-.02-.62.06-.9.12-.28.2-.6.24-.96a4.32 4.32 0 0 0-.24-.9l-.24-.96c.08-.2.14-.38.18-.54.04-.2.06-.38.06-.54.04-.2.04-.4 0-.6v-.66c.04-.64.04-1.24 0-1.8 0-.6-.04-1.2-.12-1.8-.08-.48-.14-.94-.18-1.38 0-.48-.02-.98-.06-1.5.12-.16.22-.32.3-.48.12-.16.26-.32.42-.48l.06-.48v-.6c-.04-.56-.04-1.14 0-1.74.04-.64.12-1.24.24-1.8-.04-.44-.1-.86-.18-1.26-.08-.44-.22-.86-.42-1.26l.24-.6c.12-.2.2-.38.24-.54-.04-.32-.04-.6 0-.84.08-.24.06-.5-.06-.78-.04-.12-.14-.22-.3-.3-.28 0-.56-.02-.84-.06-.28-.04-.56-.06-.84-.06-.28 0-.56-.04-.84-.12-.24-.08-.5-.08-.78 0a.91.91 0 0 1-.72.06.942.942 0 0 0-.66-.12h-1.56l-1.5-.24c-.08 0-.18-.06-.3-.18s-.18-.24-.18-.36v-.42c.08-.24.14-.48.18-.72a1.5 1.5 0 0 0 0-.84c-.04-.04-.06-.1-.06-.18.04-.12.06-.2.06-.24.16-.72.24-1.56.24-2.52s-.04-1.8-.12-2.52v-.72c0-.24.04-.46.12-.66.2-.2.4-.3.6-.3l.6-.12c.2-.08.38-.16.54-.24.16-.12.34-.2.54-.24.92-.32 1.78-.32 2.58 0l.42.12c.36-.16.74-.22 1.14-.18.4 0 .82-.1 1.26-.3.08 0 .2.02.36.06h.6l1.08-.48c.4-.16.78-.4 1.14-.72.64-.08 1.26-.1 1.86-.06.64.04 1.24-.04 1.8-.24.28.04.52.12.72.24.24.08.44.16.6.24.28 0 .5-.08.66-.24.16-.2.4-.32.72-.36.32-.08.78-.06 1.38.06.24.04.48.16.72.36.28.16.56.22.84.18.2-.12.36-.24.48-.36.16-.12.34-.24.54-.36.24 0 .5.06.78.18.28.08.54.1.78.06.28-.04.54-.08.78-.12.28-.08.62-.12 1.02-.12.16.04.32.1.48.18.16.04.32.1.48.18.24-.08.48-.14.72-.18l.84-.12.24.36c.08.12.14.22.18.3Zm15.413 2.82c.12.28.16.58.12.9-.04.28-.1.56-.18.84-.04.24-.12.48-.24.72-.12.2-.22.4-.3.6-.16.24-.34.46-.54.66l-.48.6c-.12.04-.22.12-.3.24-.08.08-.18.16-.3.24-.28.2-.72.4-1.32.6-.6.16-1.08.24-1.44.24-.2 0-.36-.04-.48-.12h-.72a4.04 4.04 0 0 0-.66-.06c-.12-.08-.26-.16-.42-.24-.12-.08-.22-.16-.3-.24-.2-.08-.42-.12-.66-.12h-.6c-.16-.12-.36-.22-.6-.3-.2-.12-.4-.22-.6-.3l-.36-1.08c.04-.32.08-.66.12-1.02.04-.4 0-.8-.12-1.2-.12-.08-.12-.18 0-.3.12-.28.12-.56 0-.84-.12-.28-.12-.56 0-.84.04-.08.06-.2.06-.36-.12-.24-.12-.46 0-.66l.3-.6c-.04-.12-.06-.24-.06-.36v-.36c.04-.04.06-.08.06-.12.04-.08.1-.14.18-.18.32-.08.58-.22.78-.42.24-.24.5-.42.78-.54.28-.24.58-.44.9-.6.36-.16.7-.32 1.02-.48h.84c.24 0 .48.04.72.12.12.04.26.06.42.06h.48c.56-.08 1 .14 1.32.66.08.2.22.32.42.36.2.04.38.1.54.18.4.36.66.82.78 1.38l.24.72c.12.24.2.48.24.72.08.24.14.5.18.78.08.24.14.48.18.72Zm-.36 13.8c-.08.24-.12.52-.12.84v.9c.04.28.04.58 0 .9-.04.28-.06.56-.06.84l-.42.6c.2.2.32.42.36.66.04.24.06.5.06.78v.9c0 .28-.02.58-.06.9-.04.28-.12.58-.24.9-.12.32-.22.66-.3 1.02 0 .4-.02.88-.06 1.44 0 .52.02 1.04.06 1.56.04.76 0 1.54-.12 2.34-.12.76-.36 1.48-.72 2.16 0 .32.04.64.12.96.08.28.16.58.24.9 0 .04-.02.08-.06.12-.04.08-.06.16-.06.24-.2.28-.44.52-.72.72-.04 0-.08.02-.12.06h-.24c-.44 0-.9.02-1.38.06-.44.08-.94.06-1.5-.06-.16-.08-.34-.18-.54-.3-.16-.12-.34-.22-.54-.3-.16 0-.36-.02-.6-.06-.2 0-.4-.02-.6-.06-.32-.36-.64-.74-.96-1.14-.12-.08-.26-.14-.42-.18-.16-.04-.32-.1-.48-.18-.28-.2-.38-.52-.3-.96.08-.44.18-.82.3-1.14.12-.52.1-1.02-.06-1.5l-.24-.84c0-.32-.02-.62-.06-.9-.04-.28-.04-.56 0-.84.04-.4.04-.78 0-1.14v-1.14c.04-.56.06-1.1.06-1.62v-1.62c0-.2.02-.32.06-.36.2-.32.3-.62.3-.9v-.96c-.04-.32-.04-.64 0-.96.08-.36.08-.68 0-.96v-1.02c0-.36.02-.72.06-1.08.04-.2.06-.4.06-.6.04-.24.02-.5-.06-.78.36-.16.66-.28.9-.36.28-.08.54-.12.78-.12h.48c.2 0 .38-.02.54-.06.4-.08.74-.16 1.02-.24.2.04.36.12.48.24l.48.24c.28 0 .56-.06.84-.18.28-.04.52-.02.72.06.24.08.42.28.54.6.04.04.06.08.06.12l.12.12.42.24c.28.04.52 0 .72-.12.2-.16.4-.26.6-.3.24 0 .38.1.42.3.12.28.2.7.24 1.26Zm45.766 7.02c-.04.32-.08.68-.12 1.08 0 .36-.02.72-.06 1.08-.04.32-.06.62-.06.9s-.06.58-.18.9c-.08.2-.12.42-.12.66v1.32c0 .2-.02.4-.06.6-.04.32-.1.66-.18 1.02-.04.32-.1.64-.18.96-.04.16-.1.34-.18.54-.08.16-.16.3-.24.42l-.42.42c-.24.24-.52.32-.84.24-.2-.08-.4-.14-.6-.18-.16-.04-.34.02-.54.18-.28-.2-.62-.36-1.02-.48h-.66c-.08 0-.16-.02-.24-.06a.533.533 0 0 0-.24-.06l-.36.12c-.12.04-.22.08-.3.12-.24 0-.4-.02-.48-.06-.44-.36-.66-.8-.66-1.32-.04-.44-.12-.86-.24-1.26l-.36-1.32c.08-.32.1-.66.06-1.02 0-.36.02-.72.06-1.08.04-.2.04-.4 0-.6 0-.24.08-.46.24-.66 0-.48.06-1.02.18-1.62.04-.16.04-.34 0-.54-.04-.4-.12-.78-.24-1.14-.08-.4-.22-.78-.42-1.14-.08-.16-.18-.3-.3-.42a.561.561 0 0 0-.42-.3c-.16-.12-.34-.22-.54-.3-.2-.08-.38-.16-.54-.24-.28.12-.52.2-.72.24-.08-.04-.18-.08-.3-.12-.12-.04-.22-.08-.3-.12-.04.04-.1.06-.18.06-.04 0-.08.02-.12.06-.24.36-.54.66-.9.9-.16.04-.32.14-.48.3l-.48.36c-.12.12-.28.2-.48.24-.16.04-.34.1-.54.18l-.12.36c0 .12-.04.24-.12.36-.04.08-.1.18-.18.3-.04.12-.08.22-.12.3-.2.56-.32 1.08-.36 1.56-.04.12-.06.24-.06.36.08.24.06.44-.06.6-.08.12-.16.26-.24.42l-.12 2.04c0 .68-.02 1.36-.06 2.04 0 .24-.02.44-.06.6-.08.24-.16.5-.24.78-.04.24-.1.5-.18.78l-1.26-.24h-.66c-.24 0-.48-.02-.72-.06h-2.04c-.28 0-.56-.02-.84-.06-.44 0-.76-.16-.96-.48-.16-.48-.3-.96-.42-1.44-.12-.52-.18-1.04-.18-1.56v-.48c.04-.16.1-.3.18-.42.08-.32.12-.6.12-.84.04-.24.06-.5.06-.78-.04-.56-.04-1.14 0-1.74.08-.6.1-1.18.06-1.74-.04-.16-.06-.3-.06-.42v-.36c-.04-.2-.1-.38-.18-.54a.677.677 0 0 1-.06-.48v-.6c.04-.2.06-.4.06-.6-.12-.16-.24-.3-.36-.42-.08-.12-.2-.26-.36-.42h-.42c-.12-.04-.26-.08-.42-.12l-.6-.3c-.2-.12-.4-.22-.6-.3-.16-.08-.34-.16-.54-.24-.16-.08-.3-.14-.42-.18-.32.12-.66.28-1.02.48-.12.04-.26.08-.42.12-.12 0-.26.02-.42.06-.2.2-.42.4-.66.6l-.66.66c-.08.16-.16.34-.24.54-.08.16-.16.34-.24.54-.24.56-.44 1.14-.6 1.74-.12.56-.18 1.18-.18 1.86v1.98c0 .68-.04 1.36-.12 2.04-.08.64-.18 1.3-.3 1.98-.04.28-.12.54-.24.78-.08.24-.16.52-.24.84-.2.28-.42.54-.66.78-.24.2-.52.34-.84.42-.56-.04-.94-.04-1.14 0-.16 0-.52.1-1.08.3l-.48.12c-.12.04-.28.08-.48.12-.2.04-.38.04-.54 0-.16-.04-.44-.12-.84-.24-.16-.24-.36-.5-.6-.78l-.6-.84c.04-.12.06-.24.06-.36.04-.12.08-.22.12-.3.08-.52.08-1.02 0-1.5-.12-.48-.22-.96-.3-1.44-.08-.48-.18-.92-.3-1.32 0-.32.06-.58.18-.78.16-.2.26-.46.3-.78.08-.28.12-.6.12-.96.04-.4.08-.78.12-1.14v-1.14c0-.4.04-.76.12-1.08 0-.28-.02-.46-.06-.54-.12-.8-.08-1.58.12-2.34.08-.2.12-.36.12-.48.04-.16.08-.28.12-.36.12-.24.28-.4.48-.48.2-.08.38-.2.54-.36.2-.36.24-.72.12-1.08a9.71 9.71 0 0 1-.18-1.14l.24-.6c.08-.24.14-.48.18-.72.32-.32.6-.66.84-1.02.28-.36.54-.7.78-1.02.08-.08.12-.22.12-.42 0-.2.08-.34.24-.42.08-.04.16-.06.24-.06.12-.04.2-.08.24-.12l2.04-.6c.68-.2 1.34-.44 1.98-.72a5.28 5.28 0 0 1 2.16-.48h.24c.08-.04.18-.06.3-.06.52-.2 1.04-.32 1.56-.36.56-.04 1.12-.06 1.68-.06h.72c.2.04.4.1.6.18.24.04.46.14.66.3.32.16.62.32.9.48.32.12.66.2 1.02.24.16.04.28.12.36.24l.36.24c.2.16.36.34.48.54l.48.6c.08.16.14.34.18.54.08.16.14.34.18.54l.48.48c.16.16.38.22.66.18.2-.2.4-.38.6-.54.2-.2.38-.4.54-.6.12.04.3.06.54.06l1.5-1.02c.08-.2.16-.36.24-.48.08-.12.14-.26.18-.42.2-.04.4-.06.6-.06l.6-.12c.28-.16.54-.28.78-.36.24-.12.48-.26.72-.42.2 0 .4.02.6.06h.66c.16.04.32.06.48.06.2-.04.38-.02.54.06.52.16 1.04.26 1.56.3.52 0 1.04.04 1.56.12.08.08.24.12.48.12l1.32 1.26c0 .04.02.08.06.12.04.04.06.08.06.12.36 1.04.96 1.78 1.8 2.22.04.08.06.2.06.36.04.12.08.22.12.3.24.24.5.36.78.36.48.08.7.3.66.66 0 .48.06.96.18 1.44.16.48.32.94.48 1.38l.42 1.5v.96c.04.36.06.7.06 1.02v.48c.04.12.08.26.12.42.12.52.12 1.08 0 1.68Zm31.13-9.96c-.04.4-.08.82-.12 1.26 0 .4-.04.8-.12 1.2-.04.4-.06.84-.06 1.32 0 .44-.08.9-.24 1.38-.08.12-.18.26-.3.42-.12.12-.24.28-.36.48v.42c.04.12.08.26.12.42-.08.2-.2.38-.36.54-.16.12-.32.22-.48.3-.4.12-.78.24-1.14.36-.32.12-.66.22-1.02.3-.56.08-1.14.1-1.74.06-.6-.08-1.2-.1-1.8-.06-.52 0-1.08.02-1.68.06h-5.1a.65.65 0 0 1-.54.12.677.677 0 0 0-.48.06c-.16-.08-.34-.08-.54 0-.2.04-.4.02-.6-.06l-.48.12c-.12 0-.28.02-.48.06-.16-.04-.3-.08-.42-.12-.12-.08-.26-.06-.42.06.08.12.16.26.24.42.12.12.2.28.24.48.12.16.22.32.3.48.08.16.16.34.24.54.08.16.14.34.18.54l.12.48c.2.2.42.4.66.6l.72.6.6.12c.24.04.46.08.66.12l.72.12c.24.04.5.04.78 0 .28-.08.54-.06.78.06.24.08.5.14.78.18l1.08-.12c.4-.04.78-.08 1.14-.12.16-.12.32-.22.48-.3.2-.12.38-.24.54-.36.52-.12 1.04-.1 1.56.06.12.2.26.4.42.6.2.2.38.42.54.66l.72 1.08c.24.32.4.7.48 1.14.08.2.2.4.36.6.16.2.28.38.36.54.04.2.02.38-.06.54-.04.16-.08.34-.12.54-.16.16-.36.3-.6.42-.04 0-.08.04-.12.12-.04.08-.1.14-.18.18l-.72.48c-.24.16-.46.32-.66.48-.56.48-1.14.72-1.74.72-.24 0-.42.02-.54.06-.2.04-.4.12-.6.24-.2.12-.42.22-.66.3-.2 0-.4.02-.6.06-.2.08-.4.14-.6.18-.12 0-.26-.02-.42-.06h-.48c-.36.04-.72.02-1.08-.06-.36-.08-.72-.12-1.08-.12l-.36-.12c-.12-.04-.24-.06-.36-.06a4.41 4.41 0 0 1-1.92-.3l-1.8-.84c-.48-.12-.82-.34-1.02-.66-.28-.32-.6-.58-.96-.78-.32-.24-.68-.44-1.08-.6-.24-.08-.48-.18-.72-.3-.24-.16-.5-.32-.78-.48-.04-.16-.1-.32-.18-.48l-.24-.48c-.08-.12-.2-.24-.36-.36l-.36-.36c-.12-.12-.22-.26-.3-.42-.2-.68-.4-1.34-.6-1.98-.2-.68-.46-1.34-.78-1.98.04-.28.06-.56.06-.84.04-.32.02-.66-.06-1.02a.668.668 0 0 1-.06-.3v-.78c.04-.16.04-.3 0-.42l-.12-.96c-.04-.32-.02-.62.06-.9l.24-.96c.08-.32.18-.66.3-1.02a.836.836 0 0 1-.06-.36c0-.16-.02-.32-.06-.48l.24-1.32c.08-.44.18-.86.3-1.26.12-.24.24-.46.36-.66l.48-.72c.28-.48.5-.94.66-1.38l.84-.42c.12-.08.22-.18.3-.3.08-.12.34-.36.78-.72-.04-.12.06-.3.3-.54.24-.24.32-.44.24-.6.36-.68.88-1.22 1.56-1.62.24-.16.46-.32.66-.48.24-.2.44-.38.6-.54.2-.12.38-.16.54-.12h.54c.12-.04.24-.06.36-.06l.48-.12c.08-.04.18-.08.3-.12.12-.04.22-.1.3-.18l.24-.12c.08-.04.16-.06.24-.06.36-.04.7-.14 1.02-.3.32-.16.62-.32.9-.48.6.24 1.22.32 1.86.24.4-.04.78-.02 1.14.06.4.08.76.18 1.08.3l.84-.24c.32.04.62.14.9.3l.84.48h.54l.12.12c.04 0 .08.02.12.06.44.4.86.78 1.26 1.14.4.32.82.66 1.26 1.02.6.4.98.88 1.14 1.44.16.24.3.42.42.54.48.4.9.94 1.26 1.62v.36c.04.12.06.24.06.36-.04.2 0 .4.12.6.12.2.2.42.24.66Zm-7.62 1.98v-1.5c0-.2-.02-.32-.06-.36-.04-.12-.1-.24-.18-.36a.651.651 0 0 0-.12-.24v-1.02l-.18-.18c-.16 0-.36-.04-.6-.12-.08-.36-.18-.64-.3-.84a.768.768 0 0 0-.48-.3c-.2-.04-.42-.1-.66-.18-.52.16-1.08.3-1.68.42-.6.12-1.18.28-1.74.48-.28.04-.54.06-.78.06s-.48.02-.72.06c-.4.16-.76.42-1.08.78l-.84.96c-.16.2-.3.42-.42.66-.12.24-.26.46-.42.66-.04.04-.06.16-.06.36.12.32.3.52.54.6.24.04.48.1.72.18.24.08.5.16.78.24.12-.04.22-.06.3-.06.12 0 .24-.02.36-.06.48-.2.88-.22 1.2-.06.32.04.6.04.84 0l.84-.12c.24.12.48.2.72.24.28.04.54.1.78.18.52.16 1.02.24 1.5.24s.96-.06 1.44-.18c.2-.2.3-.38.3-.54Z"/>
</svg>
